HIERARCHY
ROOT Hips
{
	OFFSET 0.000000 0.000000 0.000000
	CHANNELS 6 Xposition Yposition Zposition Yrotation Xrotation Zrotation
	JOINT Chest
	{
		OFFSET 0.000000 -0.009281 11.569106
		CHANNELS 3 Yrotation Xrotation Zrotation
		JOINT Chest2
		{
			OFFSET -0.000000 0.016865 9.269641
			CHANNELS 3 Yrotation Xrotation Zrotation
			JOINT Chest3
			{
				OFFSET -0.000000 0.000001 8.374491
				CHANNELS 3 Yrotation Xrotation Zrotation
				JOINT Chest4
				{
					OFFSET -0.000000 0.000001 8.374493
					CHANNELS 3 Yrotation Xrotation Zrotation
					JOINT Neck
					{
						OFFSET -0.000000 0.000002 12.152554
						CHANNELS 3 Yrotation Xrotation Zrotation
						JOINT Head
						{
							OFFSET -0.000000 0.040101 7.802319
							CHANNELS 3 Yrotation Xrotation Zrotation
							End Site
							{
								OFFSET -0.000000 0.020947 14.853096
							}
						}
					}
					JOINT RightCollar
					{
						OFFSET 2.894404 0.000001 6.791374
						CHANNELS 3 Yrotation Xrotation Zrotation
						JOINT RightShoulder
						{
							OFFSET 13.574684 0.000001 0.000000
							CHANNELS 3 Yrotation Xrotation Zrotation
							JOINT RightElbow
							{
								OFFSET 23.923903 0.000002 0.000000
								CHANNELS 3 Yrotation Xrotation Zrotation
								JOINT RightWrist
								{
									OFFSET 19.846718 0.012767 0.000000
									CHANNELS 3 Yrotation Xrotation Zrotation
									End Site
									{
										OFFSET 14.973145 0.000001 0.000000
									}
								}
							}
						}
					}
					JOINT LeftCollar
					{
						OFFSET -2.894404 0.000001 6.791374
						CHANNELS 3 Yrotation Xrotation Zrotation
						JOINT LeftShoulder
						{
							OFFSET -13.574684 -0.000001 0.000000
							CHANNELS 3 Yrotation Xrotation Zrotation
							JOINT LeftElbow
							{
								OFFSET -23.923903 -0.000002 0.000000
								CHANNELS 3 Yrotation Xrotation Zrotation
								JOINT LeftWrist
								{
									OFFSET -19.846718 0.012763 0.000000
									CHANNELS 3 Yrotation Xrotation Zrotation
									End Site
									{
										OFFSET -14.973145 -0.000001 0.000000
									}
								}
							}
						}
					}
				}
			}
		}
	}
	JOINT RightHip
	{
		OFFSET 9.469263 0.004643 0.045487
		CHANNELS 3 Yrotation Xrotation Zrotation
		JOINT RightKnee
		{
			OFFSET 0.000000 0.002661 -40.478676
			CHANNELS 3 Yrotation Xrotation Zrotation
			JOINT RightAnkle
			{
				OFFSET 0.000000 0.049106 -35.224068
				CHANNELS 3 Yrotation Xrotation Zrotation
				JOINT RightToe
				{
					OFFSET -0.000001 12.539529 -6.151390
					CHANNELS 3 Yrotation Xrotation Zrotation
					End Site
					{
						OFFSET -0.000001 5.044994 -1.291870
					}
				}
			}
		}
	}
	JOINT LeftHip
	{
		OFFSET -9.469263 0.004641 0.045487
		CHANNELS 3 Yrotation Xrotation Zrotation
		JOINT LeftKnee
		{
			OFFSET 0.000000 0.002661 -40.478676
			CHANNELS 3 Yrotation Xrotation Zrotation
			JOINT LeftAnkle
			{
				OFFSET 0.000000 0.049106 -35.224068
				CHANNELS 3 Yrotation Xrotation Zrotation
				JOINT LeftToe
				{
					OFFSET -0.000001 12.539529 -6.151390
					CHANNELS 3 Yrotation Xrotation Zrotation
					End Site
					{
						OFFSET -0.000001 5.044994 -1.291870
					}
				}
			}
		}
	}
}
MOTION
Frames: 5
Frame Time: 0.016667
10.693386 7.095521 83.171684 -5.005859 -1.854496 -110.041492 -0.374910 -3.079474 1.040766 -0.161041 -1.368515 0.454600 -0.161041 -1.368515 0.454601 -0.119757 -1.026506 0.340574 0.626523 -16.121538 -2.148051 0.387981 6.235944 -3.769686 3.007659 21.575159 -4.245278 31.263033 54.934214 30.707878 -5.986292 -1.720428 48.698508 33.978781 -12.420278 -25.345577 -5.302517 16.977485 -3.412129 -27.198537 55.644219 -29.552712 -7.340783 13.852774 -51.401319 -34.148665 -16.645654 34.331034 -0.609207 -6.500662 -2.805065 1.323765 -2.570334 -7.446082 -0.384023 2.978620 3.949670 -0.017878 -0.017167 0.013262 -0.569315 -7.368157 -0.548602 1.084361 -1.374938 1.379408 -1.103852 3.725573 0.002642 -0.041192 -0.036155 -0.013372 
10.668039 7.088190 83.169952 -5.021786 -1.860831 -110.030222 -0.395117 -3.065872 1.041224 -0.169636 -1.361947 0.454877 -0.169636 -1.361948 0.454874 -0.126208 -1.021588 0.340762 0.630336 -16.137153 -2.154262 0.393228 6.206947 -3.779635 2.951133 21.503597 -4.326406 31.525230 54.725812 30.897071 -8.286531 -2.803927 49.966355 33.999784 -13.074891 -25.620876 -5.335683 16.982874 -3.441560 -27.196948 55.646002 -29.494563 -5.717169 12.129402 -52.142812 -34.173615 -18.550370 35.305623 -0.599687 -6.503771 -2.827597 1.331220 -2.570785 -7.425603 -0.393517 2.973155 3.937386 -0.019884 -0.022108 0.012870 -0.563537 -7.373373 -0.533514 1.094743 -1.366281 1.369933 -1.103120 3.714944 -0.007814 -0.046300 -0.040914 -0.013223 
10.647240 7.078957 83.170891 -5.045845 -1.865896 -110.020455 -0.415734 -3.065315 1.044684 -0.178969 -1.361242 0.456567 -0.178969 -1.361242 0.456572 -0.133204 -1.021066 0.342012 0.627966 -16.151587 -2.159495 0.387296 6.179997 -3.790026 2.999355 21.470872 -4.258392 31.467235 54.532070 30.833960 -10.621461 -3.755492 51.190226 34.045136 -13.712810 -25.883355 -5.313319 16.937158 -3.413460 -27.155878 55.386533 -29.410945 -4.706272 11.123248 -53.042050 -34.267537 -20.611295 36.447040 -0.588531 -6.522561 -2.851268 1.328405 -2.559838 -7.406896 -0.397499 2.961503 3.920155 -0.022234 -0.023733 0.013434 -0.560711 -7.392075 -0.513735 1.109279 -1.349426 1.350372 -1.109619 3.696987 -0.012752 -0.048381 -0.040320 -0.012770 
10.627043 7.066821 83.173508 -5.073659 -1.869245 -110.011828 -0.434185 -3.068297 1.043792 -0.187858 -1.362834 0.456591 -0.187858 -1.362833 0.456591 -0.139869 -1.022266 0.342010 0.621216 -16.164527 -2.156304 0.376230 6.155849 -3.786341 3.072618 21.444093 -4.137123 31.202787 54.295677 30.581240 -12.859533 -4.506243 52.373563 33.941662 -14.221381 -26.112184 -5.288172 16.797544 -3.369088 -27.133336 55.098576 -29.332066 -3.676794 10.305163 -54.030201 -34.436526 -22.642827 37.773320 -0.573162 -6.544297 -2.854904 1.315272 -2.549461 -7.404787 -0.398248 2.948872 3.899015 -0.023470 -0.023101 0.014766 -0.557486 -7.414115 -0.501685 1.117351 -1.335223 1.336864 -1.114900 3.677536 -0.016810 -0.048697 -0.035523 -0.012853 
10.604918 7.054965 83.175041 -5.091071 -1.871124 -109.999507 -0.455483 -3.065247 1.044451 -0.197200 -1.361838 0.456773 -0.197200 -1.361838 0.456775 -0.146876 -1.021527 0.342125 0.619681 -16.171484 -2.151882 0.375150 6.142971 -3.778570 3.070123 21.350878 -4.146820 31.081025 53.949018 30.370556 -15.063497 -5.045605 53.607214 33.798057 -14.664170 -26.230305 -5.305410 16.680012 -3.374402 -27.114287 54.906450 -29.216018 -2.142535 9.197868 -54.977303 -34.468150 -24.680146 38.932826 -0.559313 -6.554721 -2.857168 1.307258 -2.539887 -7.408251 -0.399651 2.935760 3.897858 -0.024668 -0.022191 0.015026 -0.548395 -7.419847 -0.518230 1.121010 -1.329226 1.343048 -1.121312 3.660745 -0.015801 -0.047347 -0.032217 -0.013184 
